<?xml version="1.0" encoding="UTF-8" standalone="no"?>
<!-- Created with Inkscape (http://www.inkscape.org/) -->

<svg
   width="34.798737"
   height="40.933655"
   viewBox="0 0 9.2071654 10.830363"
   version="1.1"
   id="svg1"
   xml:space="preserve"
   xmlns="http://www.w3.org/2000/svg"
   xmlns:svg="http://www.w3.org/2000/svg"><defs
     id="defs1"><linearGradient
       id="swatch176"><stop
         style="stop-color:#000000;stop-opacity:1;"
         offset="0"
         id="stop176" /></linearGradient></defs><path
     style="fill:#000000"
     d="m 0.02746866,10.628339 c 0.43792,-0.98532 2.50796004,-4.55746 2.64270004,-4.56035 0.0953,-0.002 0.10849,0.47918 0.0293,1.06937 -0.18362,1.36901 0.29156,2.27025 1.387757,2.63203 1.38328,0.45652 3.00493,-0.46234 2.66423,-1.5096 -0.0851,-0.26165 -0.87101,-0.99687 -1.74643,-1.63384 -2.387877,-1.73744 -2.991027,-2.55661 -2.820187,-3.83026 0.0853,-0.63561 0.40986,-1.31491 0.82799,-1.73272 0.630757,-0.63025995 0.879157,-0.68913995 2.996327,-0.71019995 1.2697,-0.0126 2.51691,-0.11467 2.77157,-0.22674 0.58025,-0.25537 0.578,-0.21999 -0.0661,1.04345995 -0.29104,0.57086 -0.52916,1.37697 -0.52916,1.79135 0,0.4349 -0.11186,0.68429 -0.26459,0.5899 -0.14552,-0.0899 -0.26458,-0.38998 -0.26458,-0.66677 0,-0.71303 -1.02872,-1.58219 -1.87266,-1.58219 -0.393,0 -0.99563,0.22801 -1.33917,0.50669 -0.62463,0.50669 -0.62463,0.50669 0.0368,1.2135 0.3638,0.38874 1.39769,1.23267 2.29754,1.87539 0.89984,0.64272 1.7053,1.38669 1.7899,1.65325 0.16572,0.52214 0.0273,2.01299 -0.25427,2.73894 -0.49268,1.27018 -3.44482,1.92769 -5.25647,1.17074 -1.272687,-0.53177 -1.858287,-0.53957 -2.28086704,-0.0304 -0.33658,0.40556 -0.90906,0.5571 -0.74965,0.19844 z"
     id="path2" /></svg>
