<?xml version="1.0" encoding="UTF-8" standalone="no"?>
<svg
   fill="#000000"
   width="800px"
   height="800px"
   viewBox="0 0 24 24"
   id="download-double-arrow"
   data-name="Flat Color"
   class="icon flat-color"
   version="1.1"
   sodipodi:docname="export-translation.svg"
   inkscape:version="1.3 (0e150ed6c4, 2023-07-21)"
   xmlns:inkscape="http://www.inkscape.org/namespaces/inkscape"
   xmlns:sodipodi="http://sodipodi.sourceforge.net/DTD/sodipodi-0.dtd"
   xmlns="http://www.w3.org/2000/svg"
   xmlns:svg="http://www.w3.org/2000/svg">
   <defs
      id="defs1" />
   <sodipodi:namedview
      id="namedview1"
      pagecolor="#ffffff"
      bordercolor="#000000"
      borderopacity="0.25"
      inkscape:showpageshadow="2"
      inkscape:pageopacity="0.0"
      inkscape:pagecheckerboard="0"
      inkscape:deskcolor="#d1d1d1"
      inkscape:zoom="1.07625"
      inkscape:cx="399.53542"
      inkscape:cy="474.33217"
      inkscape:window-width="1920"
      inkscape:window-height="1057"
      inkscape:window-x="-8"
      inkscape:window-y="-8"
      inkscape:window-maximized="1"
      inkscape:current-layer="download-double-arrow" />
   <path
      id="secondary"
      d="m 15.71,13.29 a 1,1 0 0 1 0,1.42 l -3,3 a 1,1 0 0 1 -1.42,0 l -3,-3 a 1.0040916,1.0040916 0 0 1 1.42,-1.42 l 2.29,2.3 2.29,-2.3 a 1,1 0 0 1 1.42,0 z m -4.42,-0.58 a 1,1 0 0 0 1.42,0 l 3,-3 A 1.0040916,1.0040916 0 0 0 14.29,8.29 L 13,9.59 V 3 A 1,1 0 0 0 11,3 V 9.59 L 9.71,8.29 A 1.0040916,1.0040916 0 0 0 8.29,9.71 Z"
      style="opacity:0.4;mix-blend-mode:normal;fill:#292e33;fill-opacity:1;stroke-width:0.99999;stroke-dasharray:none" />
   <path
      id="primary"
      d="M20,22H4a2,2,0,0,1-2-2V11A2,2,0,0,1,4,9H5a1,1,0,0,1,0,2H4v9H20V11H19a1,1,0,0,1,0-2h1a2,2,0,0,1,2,2v9A2,2,0,0,1,20,22Z"
      style="fill:#292d32;fill-opacity:1" />
</svg>